<svg id="Layer_1" data-name="Layer 1" xmlns="http://www.w3.org/2000/svg" viewBox="0 0 788.75 147"><defs><style>.cls-1{fill:#fff;}.cls-2{fill:#00c9a4;}</style></defs><path class="cls-1" d="M320.77,436l-17.25,20.85v36.77H274.71V361.36h28.81v62.93h1.14l18.77-25.59,29.76-37.34h32.6l-44.55,54.4,48.53,77.9H355.84Z" transform="translate(-33 -359)"/><path class="cls-1" d="M442.27,495.94A65.49,65.49,0,0,1,418,491.67,48,48,0,0,1,399.63,479a58.32,58.32,0,0,1-11.76-21q-4.17-12.6-4.17-29.47a97,97,0,0,1,4.17-29.67A62,62,0,0,1,399.63,377,49,49,0,0,1,418,363.63a62,62,0,0,1,24.26-4.55q18.39,0,30.33,7.49t19.15,23.6l-24.83,12.89a29.62,29.62,0,0,0-8.25-13.36q-5.6-5-16.4-5-12.69,0-20.37,8.25t-7.68,24v21.23q0,15.74,7.68,24t20.37,8.25q10.62,0,17-5.78a35.13,35.13,0,0,0,9.38-13.93l23.51,13.64q-7.39,15.18-19.43,23.41T442.27,495.94Z" transform="translate(-33 -359)"/><path class="cls-1" d="M553,495.94a65.45,65.45,0,0,1-24.26-4.27A48.07,48.07,0,0,1,510.32,479a58.45,58.45,0,0,1-11.75-21q-4.17-12.6-4.17-29.47a97,97,0,0,1,4.17-29.67A62.1,62.1,0,0,1,510.32,377a49.13,49.13,0,0,1,18.39-13.37A62,62,0,0,1,553,359.08q18.39,0,30.33,7.49t19.14,23.6l-24.83,12.89a29.61,29.61,0,0,0-8.24-13.36q-5.6-5-16.4-5-12.71,0-20.38,8.25t-7.67,24v21.23q0,15.74,7.67,24T553,470.35q10.62,0,17-5.78a35.13,35.13,0,0,0,9.38-13.93l23.5,13.64q-7.4,15.18-19.43,23.41T553,495.94Z" transform="translate(-33 -359)"/><path class="cls-2" d="M660.05,470.06a27.29,27.29,0,0,1-16.47-7.58q-8-7.86-8-24.35V416.9q0-16.68,8-24.45T665,384.67q11.57,0,18,5.41a32.17,32.17,0,0,1,9.48,13.17L716,389.79q-7.4-15.35-20.28-23T665,359.08a63.43,63.43,0,0,0-24.45,4.55,51.76,51.76,0,0,0-18.86,13.27,61,61,0,0,0-12.22,21.61q-4.37,12.9-4.36,29.57t4.17,29.38a61,61,0,0,0,11.56,21.23,48.77,48.77,0,0,0,17.25,12.89,52,52,0,0,0,21.23,4.36l.74,0Z" transform="translate(-33 -359)"/><path class="cls-2" d="M775.12,495.94a50.54,50.54,0,0,1-19.62-3.6,39.11,39.11,0,0,1-14.59-10.43,47.52,47.52,0,0,1-9.2-16.49,74.12,74.12,0,0,1,0-43.22,46.61,46.61,0,0,1,9.2-16.39,39.55,39.55,0,0,1,14.59-10.33,55.26,55.26,0,0,1,39.24,0,39.55,39.55,0,0,1,14.59,10.33,46.61,46.61,0,0,1,9.2,16.39,74.12,74.12,0,0,1,0,43.22,47.52,47.52,0,0,1-9.2,16.49,39.11,39.11,0,0,1-14.59,10.43A50.54,50.54,0,0,1,775.12,495.94Zm0-22.18q8.34,0,12.89-5.12t4.55-14.59V433.77q0-9.48-4.55-14.6t-12.89-5.12q-8.34,0-12.89,5.12t-4.55,14.6v20.28q0,9.48,4.55,14.59T775.12,473.76Z" transform="translate(-33 -359)"/><line class="cls-1" x1="99" y1="17" x2="217" y2="17"/><polygon class="cls-1" points="217 34 99 34 121 1 217 0 217 34"/><line class="cls-1" y1="65" x2="216" y2="65"/><polygon class="cls-1" points="216 82 0 82 45 48 216 48 216 82"/><line class="cls-1" x1="139" y1="116" x2="216" y2="116"/><polygon class="cls-1" points="216 133 139 133 161 99 216 99 216 133"/><path class="cls-2" d="M667.26,429.5l-.52,23,25.51.58c-5,8.89-12.72,16.53-28.07,16.92l.64,25c15.44-.4,26.59-5.44,34.68-12v23h23V430.76Z" transform="translate(-33 -359)"/></svg>